Normalized EMG Linear Envelopes
nRows=257
nColumns=4

endheader
time	 med_gas_r	  soleus_r	 tib_ant_r	
3.42619	  0.084191	  0.124019	  0.040927	
3.45946	  0.098353	  0.120440	  0.040621	
3.49272	  0.110801	  0.117222	  0.040350	
3.52598	  0.120038	  0.114660	  0.040139	
3.55925	  0.125277	  0.112998	  0.040070	
3.59251	  0.126771	  0.112327	  0.040222	
3.62578	  0.125671	  0.112506	  0.040596	
3.65904	  0.123388	  0.113214	  0.041095	
3.6923	  0.120925	  0.114114	  0.041555	
3.72557	  0.118641	  0.115018	  0.041815	
3.75883	  0.116573	  0.115921	  0.041768	
3.7921	  0.114945	  0.116929	  0.041391	
3.82536	  0.114367	  0.118144	  0.040746	
3.85862	  0.115465	  0.119636	  0.039950	
3.89189	  0.118224	  0.121482	  0.039132	
3.92515	  0.121690	  0.123792	  0.038391	
3.95842	  0.124412	  0.126627	  0.037777	
3.99168	  0.125409	  0.129841	  0.037289	
4.02494	  0.124873	  0.132969	  0.036885	
4.05821	  0.123995	  0.135302	  0.036517	
4.09147	  0.124015	  0.136151	  0.036155	
4.12474	  0.125273	  0.135185	  0.035801	
4.158	  0.127040	  0.132656	  0.035504	
4.19126	  0.128201	  0.129321	  0.035348	
4.22453	  0.128146	  0.126081	  0.035424	
4.25779	  0.127096	  0.123526	  0.035794	
4.29106	  0.125673	  0.121699	  0.036447	
4.32432	  0.124235	  0.120228	  0.037292	
4.35758	  0.122646	  0.118686	  0.038200	
4.39085	  0.120625	  0.116877	  0.039046	
4.42411	  0.118256	  0.114858	  0.039751	
4.45738	  0.116146	  0.112782	  0.040286	
4.49064	  0.115092	  0.110773	  0.040664	
4.5239	  0.115515	  0.108938	  0.040910	
4.55717	  0.117064	  0.107452	  0.041033	
4.59043	  0.118676	  0.106560	  0.041013	
4.6237	  0.119139	  0.106483	  0.040816	
4.65696	  0.117817	  0.107250	  0.040436	
4.69022	  0.115016	  0.108591	  0.039936	
4.72349	  0.111717	  0.109978	  0.039472	
4.75675	  0.108913	  0.110828	  0.039253	
4.79002	  0.107154	  0.110769	  0.039445	
4.82328	  0.106599	  0.109791	  0.040041	
4.85654	  0.107353	  0.108203	  0.040796	
4.88981	  0.109603	  0.106464	  0.041303	
4.92307	  0.113416	  0.105028	  0.041173	
4.95634	  0.118512	  0.104295	  0.040211	
4.9896	  0.124302	  0.104651	  0.038495	
5.02286	  0.130136	  0.106514	  0.036355	
5.05613	  0.135423	  0.110322	  0.034315	
5.08939	  0.139565	  0.116401	  0.033053	
5.12266	  0.141943	  0.124722	  0.033367	
5.15592	  0.142171	  0.134592	  0.036150	
5.18918	  0.140407	  0.144519	  0.042334	
5.22245	  0.137406	  0.152497	  0.052757	
5.25571	  0.134241	  0.156742	  0.067852	
5.28898	  0.131914	  0.156488	  0.087274	
5.32224	  0.131036	  0.152329	  0.109716	
5.3555	  0.131636	  0.145874	  0.133246	
5.38877	  0.133191	  0.138970	  0.156113	
5.42203	  0.134927	  0.133007	  0.177534	
5.4553	  0.136197	  0.128634	  0.197871	
5.48856	  0.136713	  0.125856	  0.218027	
5.52182	  0.136522	  0.124309	  0.238562	
5.55509	  0.135890	  0.123477	  0.259257	
5.58835	  0.135188	  0.122835	  0.279444	
5.62162	  0.134731	  0.121973	  0.298631	
5.65488	  0.134609	  0.120733	  0.316739	
5.68814	  0.134671	  0.119289	  0.333764	
5.72141	  0.134734	  0.118069	  0.349384	
5.75467	  0.134780	  0.117523	  0.363110	
5.78794	  0.134943	  0.117845	  0.374867	
5.8212	  0.135368	  0.118841	  0.385334	
5.85446	  0.136161	  0.119996	  0.395561	
5.88773	  0.137447	  0.120698	  0.406289	
5.92099	  0.139434	  0.120498	  0.417790	
5.95426	  0.142427	  0.119307	  0.430409	
5.98752	  0.146884	  0.117477	  0.445134	
6.02078	  0.153454	  0.115691	  0.463580	
6.05405	  0.162765	  0.114677	  0.487408	
6.08731	  0.174879	  0.114863	  0.517445	
6.12058	  0.188721	  0.116179	  0.552580	
6.15384	  0.202031	  0.118149	  0.588953	
6.1871	  0.212151	  0.120220	  0.620559	
6.22037	  0.217328	  0.122122	  0.641825	
6.25363	  0.217727	  0.124005	  0.650696	
6.2869	  0.215313	  0.126279	  0.649595	
6.32016	  0.212555	  0.129289	  0.643228	
6.35342	  0.210862	  0.133056	  0.635161	
6.38669	  0.210028	  0.137265	  0.626221	
6.41995	  0.209137	  0.141470	  0.615685	
6.45322	  0.208001	  0.145341	  0.603495	
6.48648	  0.207608	  0.148785	  0.591178	
6.51974	  0.209004	  0.151857	  0.581006	
6.55301	  0.211788	  0.154548	  0.574830	
6.58627	  0.213945	  0.156644	  0.573837	
6.61954	  0.213406	  0.157785	  0.578920	
6.6528	  0.209829	  0.157714	  0.590443	
6.68606	  0.204888	  0.156508	  0.607156	
6.71933	  0.201011	  0.154597	  0.625512	
6.75259	  0.199989	  0.152579	  0.640762	
6.78586	  0.202494	  0.150990	  0.649572	
6.81912	  0.208236	  0.150183	  0.652166	
6.85238	  0.216044	  0.150300	  0.652105	
6.88565	  0.223991	  0.151275	  0.653764	
6.91891	  0.230161	  0.152886	  0.659462	
6.95218	  0.233846	  0.154881	  0.668272	
6.98544	  0.236048	  0.157122	  0.677108	
7.0187	  0.238600	  0.159601	  0.683168	
7.05197	  0.242640	  0.162300	  0.686128	
7.08523	  0.247816	  0.165076	  0.688728	
7.1185	  0.252800	  0.167660	  0.695198	
7.15176	  0.256373	  0.169725	  0.708217	
7.18502	  0.257980	  0.170867	  0.726306	
7.21829	  0.257546	  0.170563	  0.743852	
7.25155	  0.255196	  0.168309	  0.754295	
7.28482	  0.251433	  0.163990	  0.754331	
7.31808	  0.247391	  0.158171	  0.745807	
7.35134	  0.244514	  0.151991	  0.733809	
7.38461	  0.243741	  0.146661	  0.722883	
7.41787	  0.244988	  0.142955	  0.714711	
7.45114	  0.247360	  0.141041	  0.708660	
7.4844	  0.249707	  0.140686	  0.703711	
7.51766	  0.250965	  0.141572	  0.699528	
7.55093	  0.250384	  0.143486	  0.696099	
7.58419	  0.247917	  0.146293	  0.693018	
7.61746	  0.244564	  0.149773	  0.689463	
7.65072	  0.242085	  0.153521	  0.684900	
7.68398	  0.242098	  0.157108	  0.679951	
7.71725	  0.245344	  0.160430	  0.676804	
7.75051	  0.251606	  0.163874	  0.678754	
7.78378	  0.259949	  0.168000	  0.688720	
7.81704	  0.268792	  0.172911	  0.707305	
7.8503	  0.276068	  0.177899	  0.731593	
7.88357	  0.280051	  0.181734	  0.755774	
7.91683	  0.280434	  0.183362	  0.773425	
7.9501	  0.278482	  0.182430	  0.780131	
7.98336	  0.275855	  0.179324	  0.774987	
8.01662	  0.273276	  0.174898	  0.760512	
8.04989	  0.270439	  0.170223	  0.741390	
8.08315	  0.267043	  0.166382	  0.722669	
8.11642	  0.263513	  0.164178	  0.707888	
8.14968	  0.260623	  0.163779	  0.697798	
8.18294	  0.258675	  0.164581	  0.690489	
8.21621	  0.257314	  0.165543	  0.683211	
8.24947	  0.255962	  0.165825	  0.674867	
8.28274	  0.254169	  0.165319	  0.667325	
8.316	  0.251627	  0.164733	  0.664446	
8.34926	  0.248280	  0.165189	  0.669448	
8.38253	  0.244604	  0.167577	  0.682492	
8.41579	  0.241463	  0.171954	  0.700162	
8.44906	  0.239385	  0.177314	  0.717255	
8.48232	  0.238085	  0.181929	  0.729685	
8.51558	  0.236956	  0.184175	  0.736448	
8.54885	  0.235987	  0.183359	  0.739141	
8.58211	  0.235859	  0.180007	  0.739564	
8.61538	  0.237095	  0.175441	  0.737697	
8.64864	  0.239357	  0.170998	  0.731965	
8.6819	  0.241756	  0.167449	  0.721495	
8.71517	  0.243665	  0.164895	  0.708163	
8.74843	  0.245080	  0.163074	  0.696495	
8.7817	  0.246357	  0.161748	  0.691387	
8.81496	  0.247867	  0.160922	  0.695302	
8.84822	  0.249881	  0.160821	  0.706848	
8.88149	  0.252498	  0.161711	  0.721528	
8.91475	  0.255518	  0.163716	  0.733940	
8.94802	  0.258481	  0.166735	  0.739821	
8.98128	  0.260975	  0.170445	  0.736842	
9.01454	  0.262962	  0.174346	  0.724275	
9.04781	  0.264750	  0.177825	  0.702464	
9.08107	  0.266604	  0.180277	  0.672757	
9.11434	  0.268361	  0.181293	  0.637823	
9.1476	  0.269474	  0.180840	  0.601790	
9.18086	  0.269511	  0.179327	  0.569699	
9.21413	  0.268611	  0.177468	  0.546304	
9.24739	  0.267347	  0.176002	  0.534670	
9.28066	  0.266136	  0.175394	  0.535275	
9.31392	  0.264946	  0.175716	  0.546033	
9.34718	  0.263654	  0.176712	  0.563180	
9.38045	  0.262492	  0.177947	  0.582421	
9.41371	  0.261909	  0.178920	  0.599836	
9.44698	  0.262083	  0.179126	  0.612397	
9.48024	  0.262819	  0.178176	  0.618319	
9.5135	  0.263933	  0.175952	  0.617260	
9.54677	  0.265526	  0.172751	  0.610133	
9.58003	  0.267824	  0.169249	  0.598464	
9.6133	  0.270890	  0.166275	  0.583680	
9.64656	  0.274490	  0.164424	  0.566961	
9.67982	  0.278081	  0.163728	  0.549702	
9.71309	  0.280922	  0.163653	  0.533979	
9.74635	  0.282466	  0.163433	  0.522197	
9.77962	  0.282755	  0.162495	  0.515875	
9.81288	  0.282188	  0.160639	  0.514478	
9.84614	  0.280719	  0.157888	  0.515351	
9.87941	  0.277520	  0.154276	  0.514947	
9.91267	  0.271691	  0.149810	  0.510420	
9.94594	  0.263158	  0.144669	  0.500496	
9.9792	  0.252640	  0.139394	  0.485354	
10.0125	  0.240937	  0.134821	  0.466053	
10.0457	  0.228707	  0.131736	  0.443966	
10.079	  0.216928	  0.130524	  0.420279	
10.1123	  0.206996	  0.131127	  0.395665	
10.1455	  0.199918	  0.133358	  0.370376	
10.1788	  0.195555	  0.137278	  0.344614	
10.212	  0.193036	  0.143295	  0.318631	
10.2453	  0.191923	  0.151908	  0.292430	
10.2786	  0.192547	  0.163448	  0.265616	
10.3118	  0.195024	  0.178130	  0.237868	
10.3451	  0.198298	  0.196264	  0.209644	
10.3784	  0.200712	  0.217924	  0.182363	
10.4116	  0.201638	  0.241798	  0.157846	
10.4449	  0.202159	  0.264054	  0.137543	
10.4782	  0.203798	  0.278791	  0.122113	
10.5114	  0.206705	  0.280643	  0.111508	
10.5447	  0.209534	  0.267936	  0.105295	
10.578	  0.211263	  0.243853	  0.102916	
10.6112	  0.212776	  0.214664	  0.103722	
10.6445	  0.216155	  0.186574	  0.106906	
10.6777	  0.222361	  0.163548	  0.111473	
10.711	  0.230017	  0.147053	  0.116366	
10.7443	  0.236706	  0.136926	  0.120629	
10.7775	  0.241160	  0.132211	  0.123537	
10.8108	  0.243742	  0.131511	  0.124690	
10.8441	  0.244975	  0.133127	  0.124071	
10.8773	  0.244349	  0.135351	  0.122047	
10.9106	  0.241056	  0.136901	  0.119240	
10.9439	  0.235504	  0.137235	  0.116288	
10.9771	  0.229489	  0.136506	  0.113627	
11.0104	  0.224784	  0.135208	  0.111396	
11.0436	  0.221994	  0.133773	  0.109518	
11.0769	  0.220867	  0.132419	  0.107837	
11.1102	  0.221137	  0.131258	  0.106210	
11.1434	  0.222569	  0.130476	  0.104529	
11.1767	  0.224422	  0.130309	  0.102738	
11.21	  0.225575	  0.130794	  0.100879	
11.2432	  0.225468	  0.131566	  0.099069	
11.2765	  0.224597	  0.131955	  0.097394	
11.3098	  0.223769	  0.131404	  0.095796	
11.343	  0.223050	  0.129861	  0.094109	
11.3763	  0.221807	  0.127810	  0.092210	
11.4096	  0.219769	  0.125887	  0.090118	
11.4428	  0.217600	  0.124437	  0.087940	
11.4761	  0.216098	  0.123426	  0.085717	
11.5093	  0.215014	  0.122733	  0.083409	
11.5426	  0.213093	  0.122475	  0.081031	
11.5759	  0.209461	  0.122989	  0.078816	
11.6091	  0.204784	  0.124497	  0.077144	
11.6424	  0.200791	  0.126835	  0.076288	
11.6757	  0.198613	  0.129530	  0.076162	
11.7089	  0.197713	  0.132117	  0.076327	
11.7422	  0.196612	  0.134385	  0.076259	
11.7755	  0.194804	  0.136359	  0.075714	
11.8087	  0.194066	  0.138123	  0.074914	
11.842	  0.197911	  0.139689	  0.074404	
11.8752	  0.209466	  0.141004	  0.074672	
11.9085	  0.229302	  0.142030	  0.075849	
11.9418	  0.254641	  0.142812	  0.077668	
